<?xml version="1.0" standalone="no"?>
<!DOCTYPE svg PUBLIC "-//W3C//DTD SVG 20010904//EN"
 "http://www.w3.org/TR/2001/REC-SVG-20010904/DTD/svg10.dtd">
<svg version="1.0" xmlns="http://www.w3.org/2000/svg"
 width="828.000000pt" height="477.000000pt" viewBox="0 0 828.000000 477.000000"
 preserveAspectRatio="xMidYMid meet">

<g transform="translate(0.000000,477.000000) scale(0.100000,-0.100000)"
fill="#000000" stroke="none">
<path d="M1892 3698 l3 -913 305 0 305 0 3 913 2 912 -310 0 -310 0 2 -912z"/>
<path d="M3397 4493 c-4 -3 -7 -390 -7 -860 l0 -853 293 2 292 3 0 855 0 855
-286 3 c-157 1 -288 -1 -292 -5z"/>
<path d="M6490 3590 l0 -810 270 0 270 0 0 810 0 810 -270 0 -270 0 0 -810z"/>
<path d="M5051 4302 c-8 -3 -11 -212 -11 -763 l0 -759 195 0 195 0 -2 762 -3
762 -181 1 c-100 0 -187 -1 -193 -3z"/>
<path d="M2565 4178 c-3 -7 -4 -323 -3 -703 l3 -690 173 -3 172 -2 -2 702 -3
703 -168 3 c-128 2 -169 0 -172 -10z"/>
<path d="M2975 4178 c-3 -7 -4 -323 -3 -703 l3 -690 173 -3 172 -2 -2 702 -3
703 -168 3 c-128 2 -169 0 -172 -10z"/>
<path d="M6085 4178 c-3 -7 -4 -323 -3 -703 l3 -690 170 0 170 0 0 700 0 700
-168 3 c-128 2 -169 0 -172 -10z"/>
<path d="M990 3460 l0 -680 415 0 415 0 0 680 0 680 -415 0 -415 0 0 -680z"/>
<path d="M4050 3435 l0 -655 280 0 280 0 0 655 0 655 -280 0 -280 0 0 -655z"/>
<path d="M5500 3365 l0 -585 255 0 255 0 0 585 0 585 -255 0 -255 0 0 -585z"/>
<path d="M7095 3808 c-3 -7 -4 -240 -3 -518 l3 -505 315 0 315 0 0 515 0 515
-313 3 c-245 2 -314 0 -317 -10z"/>
<path d="M612 3218 l3 -433 153 -3 152 -3 0 436 0 435 -155 0 -155 0 2 -432z"/>
<path d="M4680 3215 l0 -435 150 0 150 0 0 435 0 435 -150 0 -150 0 0 -435z"/>
<path d="M6001 2698 c-113 -20 -213 -138 -256 -303 -28 -110 -39 -274 -27
-408 29 -309 126 -466 298 -484 123 -13 219 48 283 179 48 98 69 195 77 355
11 199 -17 380 -78 501 -64 127 -169 184 -297 160z m99 -123 c99 -51 148 -242
137 -535 -7 -171 -27 -268 -71 -345 -31 -53 -69 -75 -127 -75 -37 0 -48 6 -84
43 -76 80 -113 261 -102 506 10 221 59 364 137 403 43 22 72 23 110 3z"/>
<path d="M1341 2690 c-46 -5 -90 -11 -97 -14 -12 -4 -14 -104 -14 -580 0 -514
2 -574 16 -580 33 -13 329 -6 393 9 118 28 194 84 243 178 30 59 37 185 13
258 -21 63 -93 140 -148 158 -20 7 -37 16 -37 19 1 4 21 20 47 36 154 98 158
355 6 455 -26 17 -69 38 -95 46 -63 19 -221 26 -327 15z m239 -178 c44 -21 70
-72 70 -135 0 -100 -56 -167 -141 -167 l-49 0 0 153 c0 85 3 157 7 160 12 13
78 7 113 -11z m-18 -482 c52 -15 105 -77 113 -134 19 -125 -52 -216 -167 -216
l-48 0 0 180 0 180 33 0 c17 0 48 -5 69 -10z"/>
<path d="M2262 2669 c-99 -49 -169 -149 -214 -304 -20 -70 -23 -102 -23 -260
0 -138 4 -198 18 -256 37 -156 118 -277 215 -322 68 -32 197 -31 269 2 94 42
173 150 207 283 57 223 39 544 -39 699 -36 71 -101 138 -160 165 -39 19 -67
24 -131 24 -70 0 -89 -4 -142 -31z m187 -185 c22 -18 37 -46 53 -97 21 -65 23
-92 23 -277 0 -141 -4 -222 -14 -260 -27 -106 -61 -150 -117 -150 -77 0 -118
88 -136 287 -13 141 -1 312 28 402 22 65 71 121 107 121 14 0 39 -12 56 -26z"/>
<path d="M3113 2675 c-147 -68 -236 -253 -250 -517 -7 -136 8 -267 43 -378 60
-192 187 -291 355 -277 165 14 274 133 325 352 28 121 26 420 -4 528 -42 154
-101 240 -194 286 -53 27 -72 31 -142 31 -65 0 -92 -5 -133 -25z m160 -176
c65 -29 97 -156 97 -384 0 -178 -11 -265 -42 -337 -24 -57 -50 -78 -94 -78
-42 0 -88 51 -109 122 -38 129 -38 430 -1 553 34 111 85 153 149 124z"/>
<path d="M4724 2682 c-73 -26 -128 -73 -161 -139 -32 -67 -42 -161 -23 -229
18 -65 85 -151 166 -214 92 -71 153 -129 170 -161 42 -81 36 -192 -14 -251
-54 -64 -138 -82 -242 -53 -84 24 -82 25 -96 -29 -7 -28 -11 -53 -8 -58 11
-18 123 -42 194 -41 140 1 244 64 298 181 38 83 38 203 0 284 -38 83 -72 121
-173 198 -108 82 -139 113 -159 162 -39 93 -6 191 79 235 38 20 128 19 178 -2
29 -12 38 -13 41 -3 29 92 29 91 10 105 -49 36 -177 43 -260 15z"/>
<path d="M6621 2690 c-35 -5 -68 -13 -73 -18 -4 -4 -7 -267 -6 -583 l3 -574
62 -3 63 -3 2 258 3 258 24 3 c50 7 112 -9 146 -39 42 -37 59 -86 90 -261 14
-75 31 -154 38 -175 l12 -38 64 -3 63 -3 -5 28 c-40 216 -80 389 -97 426 -21
44 -80 107 -100 107 -19 0 -10 17 14 28 43 19 97 74 124 126 24 46 27 61 27
157 0 98 -2 110 -30 165 -33 64 -95 115 -163 133 -56 15 -190 21 -261 11z
m243 -129 c56 -35 80 -90 80 -186 1 -100 -27 -165 -91 -209 -36 -25 -52 -29
-110 -30 l-68 -1 -3 215 c-1 118 0 221 3 229 9 23 143 10 189 -18z"/>
<path d="M612 2103 l3 -588 233 -3 232 -2 0 60 0 60 -165 0 -164 0 -3 220 -3
220 148 0 147 0 0 60 0 60 -145 0 -145 0 0 195 0 195 155 0 155 0 0 55 0 55
-225 0 -225 0 2 -587z"/>
<path d="M3760 2100 l0 -591 113 3 112 3 5 205 c5 186 7 209 27 245 l21 40 10
-25 c5 -14 45 -125 87 -247 l78 -223 125 0 c95 0 123 3 119 13 -3 6 -64 157
-135 334 l-130 322 129 250 c71 138 129 253 129 256 0 3 -55 5 -122 5 l-123 0
-77 -188 c-43 -103 -90 -220 -105 -259 -15 -40 -30 -73 -33 -73 -3 0 -4 117
-2 260 l3 260 -116 0 -115 0 0 -590z"/>
<path d="M5120 2630 l0 -60 110 0 110 0 0 -530 0 -530 65 0 65 0 0 530 0 530
105 0 105 0 0 60 0 60 -280 0 -280 0 0 -60z"/>
<path d="M7260 2100 l0 -590 233 2 232 3 3 58 3 57 -171 0 -170 0 0 220 0 219
148 3 147 3 0 55 0 55 -147 3 -148 3 0 194 0 195 160 0 160 0 0 55 0 55 -225
0 -225 0 0 -590z"/>
<path d="M623 1394 c-10 -4 -13 -85 -13 -355 l0 -349 155 0 155 0 -2 353 -3
352 -140 2 c-77 1 -146 0 -152 -3z"/>
<path d="M997 1394 c-4 -4 -7 -164 -7 -356 l0 -348 415 0 415 0 0 354 0 355
-408 1 c-224 0 -411 -3 -415 -6z"/>
<path d="M1897 1394 c-4 -4 -7 -164 -7 -356 l0 -348 310 0 310 0 -2 353 -3
352 -300 3 c-166 1 -304 0 -308 -4z"/>
<path d="M2567 1394 c-4 -4 -7 -164 -7 -356 l0 -348 175 0 175 0 -2 353 -3
352 -166 3 c-91 1 -168 -1 -172 -4z"/>
<path d="M2976 1393 c-3 -3 -6 -163 -6 -355 l0 -348 175 0 175 0 -2 353 -3
352 -166 2 c-91 1 -169 0 -173 -4z"/>
<path d="M3397 1394 c-4 -4 -7 -164 -7 -356 l0 -348 295 0 295 0 -2 353 -3
352 -285 3 c-157 2 -289 0 -293 -4z"/>
<path d="M4050 1045 l0 -355 280 0 280 0 0 354 0 355 -280 1 -280 0 0 -355z"/>
<path d="M4680 1044 l0 -354 150 0 150 0 0 355 0 356 -150 -2 -150 -1 0 -354z"/>
<path d="M5040 1045 l0 -355 195 0 195 0 0 354 0 355 -195 0 -195 0 0 -354z"/>
<path d="M5500 1045 l0 -355 255 0 255 0 0 355 0 355 -255 0 -255 0 0 -355z"/>
<path d="M6087 1394 c-4 -4 -7 -164 -7 -356 l0 -348 175 0 175 0 -2 353 -3
352 -166 3 c-91 1 -168 -1 -172 -4z"/>
<path d="M6489 1396 c-2 -2 -3 -162 -1 -355 l3 -351 269 0 270 0 -2 353 -3
352 -266 3 c-146 1 -267 0 -270 -2z"/>
<path d="M7103 1393 c-10 -4 -13 -84 -13 -354 l0 -349 320 0 320 0 0 349 c0
301 -2 350 -15 355 -18 7 -595 6 -612 -1z"/>
</g>
</svg>
